{"title":"Heaven Is For Real 2014 HDCAM x264 Pimp4003","uid":10010692,"size":633528496,"categoryP":"video","categoryS":"movies","magnet":"?xt=urn:btih:bd1afc4ed322cba46f26fbc981cad3aca4c38032&amp;dn=Heaven+Is+For+Real+2014+HDCAM+x264+Pimp4003&amp;tr=udp%3A%2F%2Ftracker.openbittorrent.com%3A80&amp;tr=udp%3A%2F%2Fopen.demonii.com%3A1337&amp;tr=udp%3A%2F%2Ftracker.coppersurfer.tk%3A6969&amp;tr=udp%3A%2F%2Fexodus.desync.com%3A6969","seeders":17,"leechers":3,"uploader":"shawnmurthy","files":-1,"time":1398095976,"description":"SOURCE: EVIL-DEAD\n\nFOR THE FIRST CAM THIS LOOKS GREAT...AUDIO IS GOOD TOO DINT DO MUCH WORK ON IT...ENJOY\n\nSCREEN SHOTS\n &lt;a href=&quot;\nhttp://pimp4003.net/torrents.php?id=bd1afc4ed322cba46f26fbc981cad3aca4c38032&quot; rel=&quot;nofollow&quot; target=&quot;_NEW&quot;&gt;\nhttp://pimp4003.net/torrents.php?id=bd1afc4ed322cba46f26fbc981cad3aca4c38032&lt;/a&gt;\n\nHeaven Is For Real 2014 HDCAM x264 Pimp4003\n &lt;a href=&quot;\nhttp://www.imdb.com/title/tt1929263/&quot; rel=&quot;nofollow&quot; target=&quot;_NEW&quot;&gt;\nhttp://www.imdb.com/title/tt1929263/&lt;/a&gt;\n\nA small-town father must find the courage and conviction to share his son's extraordinary, life-changing experience with the world.\n\nDirector: Randall Wallace\nWriters: Todd Burpo (book), Chris Parker (screenplay), 2 more credits Â»\nStars: Greg Kinnear, Kelly Reilly, Thomas Haden Church | See full cast and crew Â»\n\nVideo\nID                                       : 1\nFormat                                   : AVC\nFormat/Info                              : Advanced Video Codec\nFormat profile                           : &lt;a class=&quot;__cf_email__&quot; href=&quot;/cdn-cgi/l/email-protection&quot; data-cfemail=&quot;f5bd9c929db5b9c6dbc5&quot;&gt;[email&amp;#160;protected]&lt;/a&gt;&lt;script cf-hash='f9e31' type=&quot;text/javascript&quot;&gt;\n/* &lt;![CDATA[ */!function(){try{var t=&quot;currentScript&quot;in document?document.currentScript:function(){for(var t=document.getElementsByTagName(&quot;script&quot;),e=t.length;e--;)if(t[e].getAttribute(&quot;cf-hash&quot;))return t[e]}();if(t&amp;&amp;t.previousSibling){var e,r,n,i,c=t.previousSibling,a=c.getAttribute(&quot;data-cfemail&quot;);if(a){for(e=&quot;&quot;,r=parseInt(a.substr(0,2),16),n=2;a.length-n;n+=2)i=parseInt(a.substr(n,2),16)^r,e+=String.fromCharCode(i);e=document.createTextNode(e),c.parentNode.replaceChild(e,c)}}}catch(u){}}();/* ]]&gt; */&lt;/script&gt;\nFormat settings, CABAC                   : Yes\nFormat settings, ReFrames                : 4 frames\nCodec ID                                 : avc1\nCodec ID/Info                            : Advanced Video Coding\nDuration                                 : 1h 31mn\nBit rate                                 : 750 Kbps\nWidth                                    : 720 pixels\nHeight                                   : 384 pixels\nDisplay aspect ratio                     : 1.85:1\nFrame rate mode                          : Constant\nFrame rate                               : 23.976 fps\nColor space                              : YUV\nChroma subsampling                       : 4:2:0\nBit depth                                : 8 bits\nScan type                                : Progressive\nBits/(Pixel*Frame)                       : 0.113\nStream size                              : 494 MiB (90%)\nWriting library                          : x264 core 120 r2151 a3f4407\nEncoding settings                        : cabac=1 / ref=3 / deblock=1:0:0 / analyse=0x3:0x113 / me=hex / subme=7 / psy=1 / psy_rd=1.00:0.00 / mixed_ref=1 / me_range=16 / chroma_me=1 / trellis=1 / 8x8dct=1 / cqm=0 / deadzone=21,11 / fast_pskip=1 / chroma_qp_offset=-2 / threads=16 / sliced_threads=0 / nr=0 / decimate=1 / interlaced=0 / bluray_compat=0 / constrained_intra=0 / bframes=3 / b_pyramid=2 / b_adapt=1 / b_bias=0 / direct=1 / weightb=1 / open_gop=0 / weightp=2 / keyint=25 / keyint_min=2 / scenecut=40 / intra_refresh=0 / rc_lookahead=25 / rc=abr / mbtree=1 / bitrate=750 / ratetol=1.0 / qcomp=0.60 / qpmin=0 / qpmax=69 / qpstep=4 / ip_ratio=1.40 / aq=1:1.00\n\nAudio\nID                                       : 2\nFormat                                   : AAC\nFormat/Info                              : Advanced Audio Codec\nFormat profile                           : LC\nCodec ID                                 : 40\nDuration                                 : 1h 31mn\nDuration_LastFrame                       : -35ms\nBit rate mode                            : Variable\nBit rate                                 : 82.7 Kbps\nMaximum bit rate                         : 128 Kbps\nChannel(s)                               : 2 channels\nChannel positions                        : Front: L R\nSampling rate                            : 24.0 KHz\nCompression mode                         : Lossy\nStream size                              : 54.4 MiB (10%)\n","torrent":{"xt":"urn:btih:bd1afc4ed322cba46f26fbc981cad3aca4c38032","amp;dn":"Heaven+Is+For+Real+2014+HDCAM+x264+Pimp4003","amp;tr":["udp%3A%2F%2Ftracker.openbittorrent.com%3A80","udp%3A%2F%2Fopen.demonii.com%3A1337","udp%3A%2F%2Ftracker.coppersurfer.tk%3A6969","udp%3A%2F%2Fexodus.desync.com%3A6969"],"infoHash":"bd1afc4ed322cba46f26fbc981cad3aca4c38032","infoHashBuffer":{"type":"Buffer","data":[189,26,252,78,211,34,203,164,111,38,251,201,129,202,211,172,164,195,128,50]},"announce":[],"urlList":[]}}